<svg xmlns="http://www.w3.org/2000/svg" width="163" height="60" fill="none" viewBox="0 0 163 60">
  <path fill="#fff" fill-rule="evenodd" d="M28.129 39.401h9.252a1.65 1.65 0 0 0 1.425-.817l4.678-7.986a1.65 1.65 0 0 0 .005-1.66l-4.685-8.112a1.651 1.651 0 0 0-1.43-.826h-9.239c-.59 0-1.134.315-1.43.826l-4.684 8.112a1.651 1.651 0 0 0 .005 1.66l4.678 7.986a1.65 1.65 0 0 0 1.425.817Zm11.437-9.632a6.605 6.605 0 0 1-6.605 6.605v-1.1a5.504 5.504 0 1 0-4.192-1.938l.978-.977a4.128 4.128 0 1 1 3.215 1.538v-1.1a3.027 3.027 0 1 0-2.431-1.223l1.196-1.196a1.376 1.376 0 1 1 .845.711l-3.809 3.81-.56-.56-.006.004a6.69 6.69 0 0 1-.14-.15l-.072-.072.004-.005a6.605 6.605 0 1 1 11.577-4.347Zm82.42 6.33v-1.101c-.275.367-1.293 1.1-3.165 1.1-2.339 0-4.403-1.788-4.403-4.953 0-3.164 2.477-4.678 4.678-4.678 1.762 0 2.477.734 2.615 1.1v-5.64h2.477v14.172h-2.202Zm-.138-4.678c0 1.52-1.108 2.751-2.476 2.751-1.368 0-2.477-1.232-2.477-2.751 0-1.52 1.109-2.752 2.477-2.752 1.368 0 2.476 1.232 2.476 2.752Zm-67.146-7.706h-5.78V36.1h4.404c2.11-.092 6.329-1.486 6.329-6.33 0-4.843-3.302-6.054-4.953-6.054Zm-3.303 9.907v-7.705h1.376c2.614 0 4.128 1.376 4.128 4.127 0 2.752-2.018 3.532-3.027 3.578h-2.477Zm10.871-3.715-1.377-1.376c.77-1.651 3.073-2.064 4.128-2.064 3.082 0 3.945 2.202 3.99 3.302v6.33h-2.476v-1.101c-.688 1.514-6.054 2.202-6.054-1.514 0-2.972 4.036-2.98 6.054-2.614 0-1.761-1.01-2.201-1.514-2.201-1.65 0-2.522.825-2.752 1.238Zm4.265 2.339c-1.055-.138-3.22-.11-3.44 1.1-.275 1.514 3.165 1.652 3.44-1.1Zm4.403-5.779v12.934h2.339v-4.403c.321.459 1.348 1.376 2.89 1.376 1.926 0 4.678-1.1 4.678-4.954 0-3.852-2.89-4.953-4.678-4.953-1.431 0-2.523.917-2.89 1.376v-1.376h-2.34Zm7.43 4.954c0 1.52-1.109 2.751-2.477 2.751-1.368 0-2.476-1.232-2.476-2.751 0-1.52 1.108-2.752 2.476-2.752 1.368 0 2.477 1.232 2.477 2.752Zm4.128 7.98V26.467h2.201v1.376c.367-.459 1.459-1.376 2.89-1.376 1.789 0 4.54.826 4.54 4.954 0 4.127-2.889 4.953-4.54 4.953-1.321 0-2.293-.917-2.614-1.376v4.403h-2.477Zm4.678-5.229c1.368 0 2.477-1.232 2.477-2.751 0-1.52-1.109-2.752-2.477-2.752-1.368 0-2.477 1.232-2.477 2.752 0 1.52 1.11 2.751 2.477 2.751Zm9.219 1.927H93.78V23.715h5.504c1.238 0 3.715.743 3.715 3.715.046.872-.303 2.862-2.064 3.853l3.577 4.816h-2.889L98.32 31.42h-1.927v4.678Zm-.138-10.458v3.716h2.752c.46 0 1.376-.33 1.376-1.652 0-1.32-.275-2.064-2.063-2.064h-2.064Zm9.907 4.266-1.238-1.514c.229-.642 1.404-1.926 4.266-1.926s3.669 2.11 3.715 3.165v6.467h-2.202v-1.101c-2.889 2.614-6.192.688-6.192-1.651 0-1.872 1.835-2.431 2.752-2.477h3.165c0-.734-.33-2.201-1.651-2.201s-2.294.825-2.615 1.238Zm4.282 2.396c-1.055-.138-3.22-.11-3.44 1.1-.276 1.514 3.164 1.651 3.44-1.1Zm21.449 2.695v1.1h2.201v-6.191c0-.55-.688-3.44-3.715-3.44-2.421 0-3.852 1.376-4.265 2.064l1.238 1.376c.184-.413.936-1.238 2.477-1.238s1.835 1.375 1.789 2.064h-1.789c-3.715 0-4.128 1.788-4.128 2.751 0 .964.963 2.615 3.165 2.615 1.761 0 2.752-.734 3.027-1.101Zm-.26-2.695c-1.055-.138-3.219-.11-3.44 1.1-.275 1.514 3.165 1.651 3.44-1.1Z" clip-rule="evenodd"/>
  <path fill="#fff" d="M136.158 26.742h2.339v1.101c.459-.55 1.762-1.541 3.303-1.1v2.2c-1.101-.045-3.303.358-3.303 2.34v4.816h-2.339v-9.357Z"/>
</svg>
